<svg width="135" height="141" viewBox="0 0 135 141" fill="none" xmlns="http://www.w3.org/2000/svg">
<path opacity="0.5" fill-rule="evenodd" clip-rule="evenodd" d="M-625.643 -826.197C-628.38 -828.034 -631.116 -829.825 -633.849 -831.57L-633.042 -832.834C-630.299 -831.083 -627.553 -829.286 -624.807 -827.442L-625.643 -826.197ZM-609.554 -814.852C-612.212 -816.82 -614.872 -818.741 -617.533 -820.617L-616.668 -821.843C-613.998 -819.96 -611.329 -818.032 -608.662 -816.058L-609.554 -814.852ZM-642.228 -836.785C-645.042 -838.492 -647.852 -840.151 -650.655 -841.765L-649.907 -843.065C-647.094 -841.446 -644.274 -839.78 -641.451 -838.068L-642.228 -836.785ZM-593.989 -802.773C-596.567 -804.87 -599.15 -806.921 -601.736 -808.927L-600.816 -810.112C-598.221 -808.099 -595.63 -806.041 -593.042 -803.936L-593.989 -802.773ZM-659.279 -846.598C-662.169 -848.174 -665.05 -849.702 -667.92 -851.184L-667.232 -852.517C-664.352 -851.03 -661.46 -849.496 -658.561 -847.915L-659.279 -846.598ZM-579.008 -790.013C-581.493 -792.229 -583.985 -794.399 -586.482 -796.526L-585.51 -797.668C-583.004 -795.534 -580.504 -793.356 -578.01 -791.133L-579.008 -790.013ZM-676.76 -855.619C-679.723 -857.063 -682.673 -858.459 -685.608 -859.808L-684.982 -861.171C-682.037 -859.817 -679.076 -858.416 -676.103 -856.967L-676.76 -855.619ZM-564.659 -776.635C-567.029 -778.945 -569.408 -781.212 -571.793 -783.435L-570.77 -784.533C-568.377 -782.301 -565.99 -780.027 -563.612 -777.709L-564.659 -776.635ZM-694.631 -863.831C-697.668 -865.144 -700.685 -866.407 -703.681 -867.623L-703.117 -869.013C-700.111 -867.793 -697.083 -866.525 -694.036 -865.208L-694.631 -863.831ZM-550.902 -762.621C-553.152 -765.016 -555.412 -767.369 -557.681 -769.68L-556.61 -770.731C-554.334 -768.412 -552.067 -766.052 -549.808 -763.649L-550.902 -762.621ZM-712.847 -871.222C-715.958 -872.402 -719.042 -873.532 -722.096 -874.614L-721.596 -876.028C-718.531 -874.943 -715.436 -873.809 -712.315 -872.624L-712.847 -871.222ZM-537.74 -747.996C-539.876 -750.474 -542.023 -752.912 -544.179 -755.31L-543.064 -756.313C-540.901 -753.907 -538.747 -751.462 -536.604 -748.975L-537.74 -747.996ZM-731.355 -877.775C-734.541 -878.823 -737.691 -879.819 -740.8 -880.765L-740.364 -882.2C-737.244 -881.251 -734.083 -880.252 -730.886 -879.2L-731.355 -877.775ZM-525.175 -732.777C-527.234 -735.381 -529.306 -737.944 -531.39 -740.467L-530.233 -741.422C-528.143 -738.891 -526.065 -736.32 -523.998 -733.707L-525.175 -732.777ZM-750.185 -883.504C-753.414 -884.407 -756.593 -885.257 -759.717 -886.055L-759.346 -887.508C-756.21 -886.707 -753.021 -885.855 -749.781 -884.949L-750.185 -883.504ZM-513.302 -717.118C-515.256 -719.807 -517.223 -722.455 -519.202 -725.065L-518.007 -725.971C-516.021 -723.354 -514.048 -720.697 -512.088 -718L-513.302 -717.118ZM-769.311 -888.39C-772.565 -889.143 -775.751 -889.84 -778.863 -890.486L-778.558 -891.955C-775.435 -891.307 -772.238 -890.607 -768.973 -889.852L-769.311 -888.39ZM-502.091 -701.033C-503.917 -703.765 -505.756 -706.459 -507.607 -709.116L-506.376 -709.974C-504.519 -707.309 -502.675 -704.607 -500.844 -701.866L-502.091 -701.033ZM-788.505 -892.37C-791.863 -892.986 -795.119 -893.541 -798.265 -894.04L-798.03 -895.522C-794.872 -895.021 -791.605 -894.464 -788.234 -893.846L-788.505 -892.37ZM-491.459 -684.441C-493.178 -687.238 -494.909 -689.999 -496.654 -692.723L-495.391 -693.532C-493.641 -690.8 -491.904 -688.031 -490.181 -685.226L-491.459 -684.441ZM-808.021 -895.468C-811.448 -895.926 -814.709 -896.316 -817.793 -896.648L-817.632 -898.14C-814.537 -897.806 -811.262 -897.414 -807.822 -896.955L-808.021 -895.468ZM-481.438 -667.426C-483.08 -670.335 -484.736 -673.206 -486.407 -676.042L-485.114 -676.803C-483.439 -673.96 -481.778 -671.08 -480.132 -668.164L-481.438 -667.426ZM-827.59 -897.569C-831.206 -897.857 -834.465 -898.059 -837.337 -898.2L-837.264 -899.698C-834.377 -899.557 -831.102 -899.354 -827.471 -899.064L-827.59 -897.569ZM-472.126 -650.226C-473.642 -653.146 -475.172 -656.032 -476.716 -658.884L-475.397 -659.598C-473.848 -656.738 -472.314 -653.845 -470.795 -650.917L-472.126 -650.226ZM-847.229 -898.494C-848.773 -898.507 -849.954 -898.497 -850.747 -898.484C-851.03 -898.48 -851.263 -898.475 -851.446 -898.47L-851.645 -898.465L-851.869 -898.459L-851.925 -898.457L-851.939 -898.456L-851.942 -898.456L-851.971 -899.206L-852 -899.955L-851.994 -899.955L-851.979 -899.956L-851.919 -899.958L-851.686 -899.965C-851.48 -899.97 -851.174 -899.978 -850.772 -899.984C-849.966 -899.997 -848.773 -900.007 -847.217 -899.994L-847.229 -898.494ZM-463.34 -632.564C-464.753 -635.529 -466.181 -638.462 -467.623 -641.362L-466.279 -642.029C-464.834 -639.122 -463.403 -636.182 -461.986 -633.209L-463.34 -632.564ZM-455.159 -614.647C-456.493 -617.698 -457.842 -620.717 -459.206 -623.703L-457.841 -624.326C-456.474 -621.332 -455.122 -618.306 -453.785 -615.248L-455.159 -614.647ZM-447.59 -596.573C-448.806 -599.607 -450.037 -602.61 -451.281 -605.584L-449.898 -606.163C-448.65 -603.182 -447.417 -600.172 -446.198 -597.131L-447.59 -596.573ZM-440.48 -578.025C-441.633 -581.174 -442.802 -584.291 -443.986 -587.379L-442.585 -587.916C-441.399 -584.821 -440.228 -581.697 -439.071 -578.541L-440.48 -578.025ZM-434.035 -559.632C-435.081 -562.755 -436.141 -565.848 -437.215 -568.914L-435.799 -569.41C-434.723 -566.338 -433.66 -563.237 -432.613 -560.108L-434.035 -559.632ZM-429.43 -545.385C-429.93 -546.99 -430.435 -548.587 -430.943 -550.177L-429.514 -550.634C-429.005 -549.04 -428.499 -547.44 -427.998 -545.832C-427.195 -543.257 -426.569 -541.182 -426.052 -539.422L-427.491 -538.999C-428.006 -540.751 -428.629 -542.818 -429.43 -545.385ZM-421.418 -519.851C-422.356 -522.424 -423.069 -524.452 -423.649 -526.175L-422.228 -526.654C-421.652 -524.946 -420.943 -522.929 -420.009 -520.365L-421.418 -519.851ZM852.529 344.094C849.713 342.275 846.879 340.501 844.028 338.772L844.806 337.489C847.669 339.226 850.515 341.007 853.343 342.834L852.529 344.094ZM869.057 355.456C866.364 353.488 863.652 351.566 860.923 349.689L861.773 348.453C864.514 350.338 867.237 352.268 869.942 354.245L869.057 355.456ZM835.421 333.713C832.501 332.051 829.564 330.432 826.609 328.856L827.315 327.532C830.282 329.115 833.231 330.74 836.164 332.41L835.421 333.713ZM884.93 367.777C882.322 365.628 879.695 363.527 877.049 361.475L877.968 360.289C880.626 362.351 883.264 364.461 885.883 366.619L884.93 367.777ZM817.69 324.249C814.7 322.755 811.693 321.302 808.671 319.888L809.306 318.53C812.34 319.949 815.358 321.407 818.36 322.907L817.69 324.249ZM899.972 380.912C897.523 378.647 895.055 376.429 892.569 374.257L893.556 373.128C896.053 375.309 898.531 377.536 900.991 379.811L899.972 380.912ZM799.528 315.753C796.462 314.412 793.379 313.11 790.282 311.845L790.849 310.456C793.958 311.726 797.051 313.033 800.129 314.379L799.528 315.753ZM914.418 395.06C912.053 392.608 909.668 390.206 907.264 387.852L908.314 386.781C910.727 389.144 913.122 391.556 915.497 394.018L914.418 395.06ZM780.945 308.159C777.822 306.968 774.685 305.813 771.533 304.692L772.035 303.279C775.198 304.403 778.346 305.563 781.48 306.758L780.945 308.159ZM927.824 409.731C925.626 407.192 923.409 404.7 921.175 402.255L922.282 401.243C924.526 403.698 926.751 406.2 928.958 408.749L927.824 409.731ZM762.044 301.434C758.868 300.381 755.678 299.361 752.475 298.372L752.917 296.938C756.13 297.93 759.33 298.953 762.516 300.01L762.044 301.434ZM937.59 421.482C936.519 420.14 935.443 418.81 934.362 417.492L935.522 416.541C936.607 417.864 937.687 419.199 938.762 420.546L937.59 421.482ZM742.85 295.505C739.642 294.584 736.422 293.692 733.19 292.828L733.577 291.379C736.818 292.245 740.047 293.139 743.264 294.063L742.85 295.505ZM723.458 290.321C720.208 289.513 716.946 288.733 713.673 287.978L714.01 286.516C717.291 287.273 720.561 288.056 723.82 288.865L723.458 290.321ZM703.895 285.804C700.626 285.103 697.346 284.426 694.057 283.772L694.349 282.301C697.646 282.957 700.933 283.635 704.21 284.337L703.895 285.804ZM684.159 281.875C680.881 281.27 677.593 280.685 674.297 280.12L674.551 278.641C677.853 279.208 681.147 279.793 684.432 280.4L684.159 281.875ZM664.391 278.482C661.081 277.955 657.762 277.446 654.436 276.953L654.655 275.469C657.987 275.962 661.311 276.473 664.627 277.001L664.391 278.482ZM644.497 275.533C641.188 275.077 637.872 274.637 634.55 274.21L634.741 272.722C638.068 273.15 641.388 273.591 644.702 274.047L644.497 275.533ZM-349.964 -373.51C-350.904 -374.892 -351.841 -376.286 -352.777 -377.693L-351.527 -378.523C-350.595 -377.121 -349.661 -375.731 -348.724 -374.354L-349.964 -373.51ZM624.562 272.97C621.237 272.571 617.905 272.185 614.568 271.81L614.735 270.319C618.076 270.695 621.412 271.081 624.741 271.481L624.562 272.97ZM-338.452 -357.335C-340.409 -359.963 -342.357 -362.638 -344.296 -365.363L-343.074 -366.232C-341.141 -363.517 -339.2 -360.85 -337.249 -358.231L-338.452 -357.335ZM604.595 270.724C601.266 270.372 597.931 270.03 594.591 269.698L594.74 268.205C598.082 268.538 601.42 268.88 604.753 269.232L604.595 270.724ZM-326.24 -341.675C-328.317 -344.218 -330.385 -346.809 -332.444 -349.449L-331.261 -350.372C-329.209 -347.74 -327.148 -345.158 -325.079 -342.624L-326.24 -341.675ZM-313.331 -326.586C-315.528 -329.037 -317.717 -331.537 -319.898 -334.087L-318.758 -335.062C-316.585 -332.521 -314.403 -330.03 -312.214 -327.587L-313.331 -326.586ZM579.358 268.239C577.764 268.092 576.168 267.946 574.571 267.802L574.706 266.308C578.042 266.609 581.373 266.916 584.701 267.231L584.56 268.724C582.827 268.56 581.093 268.399 579.358 268.239ZM-299.742 -312.117C-302.057 -314.47 -304.365 -316.87 -306.665 -319.32L-305.572 -320.347C-303.28 -317.905 -300.98 -315.514 -298.673 -313.169L-299.742 -312.117ZM-291.276 -303.75C-291.756 -304.211 -292.236 -304.675 -292.716 -305.14L-291.671 -306.217C-290.818 -305.388 -289.963 -304.566 -289.108 -303.75H-291.276ZM-138.988 -197.54L-138.693 -197.356L-137.899 -198.629C-138.262 -198.855 -138.625 -199.081 -138.988 -199.307V-197.54ZM564.559 266.918C561.219 266.629 557.874 266.345 554.527 266.064L554.653 264.569C558.001 264.85 561.346 265.134 564.689 265.424L564.559 266.918ZM-122.016 -186.658C-124.761 -188.476 -127.527 -190.275 -130.315 -192.061L-129.505 -193.324C-126.712 -191.535 -123.939 -189.731 -121.188 -187.909L-122.016 -186.658ZM-105.734 -175.422C-108.403 -177.348 -111.098 -179.246 -113.817 -181.121L-112.966 -182.356C-110.238 -180.476 -107.534 -178.571 -104.856 -176.638L-105.734 -175.422ZM-89.9951 -163.439C-92.5616 -165.507 -95.1577 -167.537 -97.7817 -169.533L-96.8737 -170.726C-94.239 -168.723 -91.6318 -166.684 -89.0538 -164.607L-89.9951 -163.439ZM-74.9971 -150.553C-77.4305 -152.788 -79.8967 -154.976 -82.3939 -157.119L-81.4169 -158.258C-78.9074 -156.103 -76.4285 -153.905 -73.9823 -151.657L-74.9971 -150.553ZM-60.9509 -136.675C-63.2138 -139.085 -65.5118 -141.439 -67.8432 -143.741L-66.7893 -144.809C-64.4447 -142.494 -62.1335 -140.126 -59.8572 -137.701L-60.9509 -136.675ZM544.509 265.236C541.173 264.963 537.834 264.693 534.493 264.425L534.613 262.929C537.954 263.198 541.294 263.468 544.631 263.741L544.509 265.236ZM-47.9907 -121.726C-50.0677 -124.326 -52.1814 -126.862 -54.3302 -129.34L-53.197 -130.323C-51.0352 -127.83 -48.9085 -125.278 -46.8187 -122.662L-47.9907 -121.726ZM-40.7576 -114.75H-40.8563L-40.7922 -114.797L-40.7576 -114.75ZM524.464 263.622L522.101 263.434C519.545 263.23 516.989 263.026 514.432 262.822L514.552 261.326C517.897 261.594 521.241 261.86 524.583 262.127L524.464 263.622ZM504.412 262.017C501.071 261.747 497.73 261.475 494.388 261.2L494.511 259.705C495.756 259.808 497.002 259.91 498.247 260.012C500.343 260.183 502.438 260.353 504.533 260.522L504.412 262.017ZM484.361 260.363C481.019 260.08 477.678 259.793 474.338 259.5L474.469 258.006C477.808 258.299 481.147 258.586 484.487 258.869L484.361 260.363ZM464.318 258.603C460.979 258.298 457.641 257.985 454.304 257.665L454.447 256.172C457.782 256.492 461.118 256.804 464.455 257.109L464.318 258.603ZM444.29 256.678C440.951 256.34 437.614 255.993 434.279 255.636L434.438 254.144C437.77 254.502 441.105 254.848 444.441 255.186L444.29 256.678ZM424.281 254.531C420.949 254.152 417.62 253.76 414.294 253.356L414.475 251.867C417.797 252.271 421.122 252.662 424.45 253.041L424.281 254.531ZM404.299 252.102C400.971 251.67 397.646 251.224 394.325 250.763L394.531 249.277C397.848 249.738 401.168 250.183 404.492 250.614L404.299 252.102ZM384.375 249.333C381.052 248.839 377.733 248.328 374.42 247.8L374.656 246.318C377.964 246.846 381.278 247.356 384.596 247.849L384.375 249.333ZM26.3415 19.4742C24.7165 16.6133 23.1035 13.7169 21.5027 10.7846L22.8193 10.0658C24.416 12.9908 26.025 15.8798 27.6459 18.7333L26.3415 19.4742ZM364.485 246.158C361.178 245.593 357.877 245.008 354.581 244.404L354.852 242.928C358.142 243.532 361.437 244.115 364.738 244.68L364.485 246.158ZM36.5872 36.7893C34.7956 33.8828 33.0173 30.9368 31.2526 27.9507L32.5441 27.1875C34.304 30.1657 36.0774 33.1037 37.8641 36.0022L36.5872 36.7893ZM344.696 242.524C341.399 241.875 338.108 241.205 334.824 240.512L335.134 239.044C338.411 239.736 341.695 240.405 344.985 241.053L344.696 242.524ZM47.5009 53.7656C45.6557 51.0138 43.8235 48.2235 42.0045 45.3943L43.2662 44.5832C45.08 47.4043 46.9069 50.1864 48.7468 52.9301L47.5009 53.7656ZM324.992 238.362C321.721 237.622 318.457 236.858 315.2 236.068L315.554 234.611C318.803 235.398 322.059 236.161 325.323 236.899L324.992 238.362ZM58.9855 70.1754C57.0016 67.46 55.0315 64.7039 53.0753 61.9064L54.3046 61.0468C56.2549 63.8358 58.219 66.5835 60.1967 69.2906L58.9855 70.1754ZM305.428 233.616C302.178 232.773 298.937 231.902 295.704 231.004L296.105 229.559C299.33 230.455 302.563 231.323 305.805 232.164L305.428 233.616ZM71.2631 86.2498C69.1891 83.6532 67.1287 81.0157 65.0824 78.3369L66.2744 77.4263C68.3142 80.0966 70.3679 82.7256 72.4351 85.3138L71.2631 86.2498ZM286.03 228.226C282.813 227.271 279.605 226.286 276.407 225.272L276.86 223.842C280.05 224.854 283.249 225.835 286.457 226.788L286.03 228.226ZM84.114 101.627C81.9036 99.1001 79.7075 96.5309 77.5259 93.9185L78.6771 92.957C80.8515 95.5606 83.0402 98.1211 85.243 100.639L84.114 101.627ZM266.839 222.135C263.66 221.059 260.49 219.95 257.33 218.809L257.84 217.399C260.99 218.536 264.15 219.641 267.32 220.715L266.839 222.135ZM97.7651 116.515C95.4613 114.119 93.1717 111.681 90.8964 109.2L92.0019 108.186C94.2692 110.659 96.5508 113.088 98.8464 115.476L97.7651 116.515ZM247.898 215.293C244.771 214.089 241.654 212.852 238.549 211.58L239.118 210.192C242.213 211.46 245.319 212.693 248.436 213.893L247.898 215.293ZM112.039 130.663C109.584 128.345 107.144 125.984 104.718 123.578L105.775 122.513C108.191 124.91 110.623 127.263 113.069 129.572L112.039 130.663ZM229.267 207.658C226.186 206.315 223.118 204.937 220.061 203.521L220.691 202.16C223.738 203.571 226.796 204.945 229.866 206.283L229.267 207.658ZM121.012 138.882C120.503 138.429 119.994 137.975 119.486 137.518L120.488 136.402C120.663 136.559 120.838 136.716 121.012 136.872V138.882ZM192.008 189.25C192.377 189.456 192.746 189.661 193.116 189.865L193.456 189.25H192.008ZM211.005 199.199C207.999 197.721 205.004 196.205 202.023 194.649L202.716 193.319C205.688 194.869 208.671 196.38 211.667 197.853L211.005 199.199Z" fill="#496E0D"/>
</svg>
