<svg width="116" height="102" viewBox="0 0 116 102" fill="none" xmlns="http://www.w3.org/2000/svg">
<path opacity="0.5" fill-rule="evenodd" clip-rule="evenodd" d="M-478.643 -614.197C-481.38 -616.034 -484.116 -617.825 -486.849 -619.57L-486.042 -620.834C-483.299 -619.083 -480.553 -617.286 -477.807 -615.442L-478.643 -614.197ZM-462.554 -602.852C-465.212 -604.82 -467.872 -606.741 -470.533 -608.617L-469.668 -609.843C-466.998 -607.96 -464.329 -606.032 -461.662 -604.058L-462.554 -602.852ZM-495.228 -624.785C-498.042 -626.492 -500.852 -628.151 -503.655 -629.765L-502.907 -631.065C-500.094 -629.446 -497.274 -627.78 -494.451 -626.068L-495.228 -624.785ZM-446.989 -590.773C-449.567 -592.87 -452.15 -594.921 -454.736 -596.927L-453.816 -598.112C-451.221 -596.099 -448.63 -594.041 -446.042 -591.936L-446.989 -590.773ZM-512.279 -634.598C-515.169 -636.174 -518.05 -637.702 -520.92 -639.184L-520.232 -640.517C-517.352 -639.03 -514.46 -637.496 -511.561 -635.915L-512.279 -634.598ZM-432.008 -578.013C-434.493 -580.229 -436.985 -582.399 -439.482 -584.526L-438.51 -585.668C-436.004 -583.534 -433.504 -581.356 -431.01 -579.133L-432.008 -578.013ZM-529.76 -643.619C-532.723 -645.063 -535.673 -646.459 -538.608 -647.808L-537.982 -649.171C-535.037 -647.817 -532.076 -646.416 -529.103 -644.967L-529.76 -643.619ZM-417.659 -564.635C-420.029 -566.945 -422.408 -569.212 -424.793 -571.435L-423.77 -572.533C-421.377 -570.301 -418.99 -568.027 -416.612 -565.709L-417.659 -564.635ZM-547.631 -651.831C-550.668 -653.144 -553.685 -654.407 -556.681 -655.623L-556.117 -657.013C-553.111 -655.793 -550.083 -654.525 -547.036 -653.208L-547.631 -651.831ZM-403.902 -550.621C-406.152 -553.016 -408.412 -555.369 -410.681 -557.68L-409.61 -558.731C-407.334 -556.412 -405.067 -554.052 -402.808 -551.649L-403.902 -550.621ZM-565.847 -659.222C-568.958 -660.402 -572.042 -661.532 -575.096 -662.614L-574.596 -664.028C-571.531 -662.943 -568.436 -661.809 -565.315 -660.624L-565.847 -659.222ZM-390.74 -535.996C-392.876 -538.474 -395.023 -540.912 -397.179 -543.31L-396.064 -544.313C-393.901 -541.907 -391.747 -539.462 -389.604 -536.975L-390.74 -535.996ZM-584.355 -665.775C-587.541 -666.823 -590.691 -667.819 -593.8 -668.765L-593.364 -670.2C-590.244 -669.251 -587.083 -668.252 -583.886 -667.2L-584.355 -665.775ZM-378.175 -520.777C-380.234 -523.381 -382.306 -525.944 -384.39 -528.467L-383.233 -529.422C-381.143 -526.891 -379.065 -524.32 -376.998 -521.707L-378.175 -520.777ZM-603.185 -671.504C-606.414 -672.407 -609.593 -673.257 -612.717 -674.055L-612.346 -675.508C-609.21 -674.707 -606.021 -673.855 -602.781 -672.949L-603.185 -671.504ZM-366.302 -505.118C-368.256 -507.807 -370.223 -510.455 -372.202 -513.065L-371.007 -513.971C-369.021 -511.354 -367.048 -508.697 -365.088 -506L-366.302 -505.118ZM-622.311 -676.39C-625.565 -677.143 -628.751 -677.84 -631.863 -678.486L-631.558 -679.955C-628.435 -679.307 -625.238 -678.607 -621.973 -677.852L-622.311 -676.39ZM-355.091 -489.033C-356.917 -491.765 -358.756 -494.459 -360.607 -497.116L-359.376 -497.974C-357.519 -495.309 -355.675 -492.607 -353.844 -489.866L-355.091 -489.033ZM-641.505 -680.37C-644.863 -680.986 -648.119 -681.541 -651.265 -682.04L-651.03 -683.522C-647.872 -683.021 -644.605 -682.464 -641.234 -681.846L-641.505 -680.37ZM-344.459 -472.441C-346.178 -475.238 -347.909 -477.999 -349.654 -480.723L-348.391 -481.532C-346.641 -478.8 -344.904 -476.031 -343.181 -473.226L-344.459 -472.441ZM-661.021 -683.468C-664.448 -683.926 -667.709 -684.316 -670.793 -684.648L-670.632 -686.14C-667.537 -685.806 -664.262 -685.414 -660.822 -684.955L-661.021 -683.468ZM-334.438 -455.426C-336.08 -458.335 -337.736 -461.206 -339.407 -464.042L-338.114 -464.803C-336.439 -461.96 -334.778 -459.08 -333.132 -456.164L-334.438 -455.426ZM-680.59 -685.569C-684.206 -685.857 -687.465 -686.059 -690.337 -686.2L-690.264 -687.698C-687.377 -687.557 -684.102 -687.354 -680.471 -687.064L-680.59 -685.569ZM-325.126 -438.226C-326.642 -441.146 -328.172 -444.032 -329.716 -446.884L-328.397 -447.598C-326.848 -444.738 -325.314 -441.845 -323.795 -438.917L-325.126 -438.226ZM-700.229 -686.494C-701.773 -686.507 -702.954 -686.497 -703.747 -686.484C-704.03 -686.48 -704.263 -686.475 -704.446 -686.47L-704.645 -686.465L-704.869 -686.459L-704.925 -686.457L-704.939 -686.456L-704.942 -686.456L-704.971 -687.206L-705 -687.955L-704.994 -687.955L-704.979 -687.956L-704.919 -687.958L-704.686 -687.965C-704.48 -687.97 -704.174 -687.978 -703.772 -687.984C-702.966 -687.997 -701.773 -688.007 -700.217 -687.994L-700.229 -686.494ZM-316.34 -420.564C-317.753 -423.529 -319.181 -426.462 -320.623 -429.362L-319.279 -430.029C-317.834 -427.122 -316.403 -424.182 -314.986 -421.209L-316.34 -420.564ZM-308.159 -402.647C-309.493 -405.698 -310.842 -408.717 -312.206 -411.703L-310.841 -412.326C-309.474 -409.332 -308.122 -406.306 -306.785 -403.248L-308.159 -402.647ZM-300.59 -384.573C-301.806 -387.607 -303.037 -390.61 -304.281 -393.584L-302.898 -394.163C-301.65 -391.182 -300.417 -388.172 -299.198 -385.131L-300.59 -384.573ZM-293.48 -366.025C-294.633 -369.174 -295.802 -372.291 -296.986 -375.379L-295.585 -375.916C-294.399 -372.821 -293.228 -369.697 -292.071 -366.541L-293.48 -366.025ZM-287.035 -347.632C-288.081 -350.755 -289.141 -353.848 -290.215 -356.914L-288.799 -357.41C-287.723 -354.338 -286.66 -351.237 -285.613 -348.108L-287.035 -347.632ZM-282.43 -333.385C-282.93 -334.99 -283.435 -336.587 -283.943 -338.177L-282.514 -338.634C-282.005 -337.04 -281.499 -335.44 -280.998 -333.832C-280.195 -331.257 -279.569 -329.182 -279.052 -327.422L-280.491 -326.999C-281.006 -328.751 -281.629 -330.818 -282.43 -333.385ZM-274.418 -307.851C-275.356 -310.424 -276.069 -312.452 -276.649 -314.175L-275.228 -314.654C-274.652 -312.946 -273.943 -310.929 -273.009 -308.365L-274.418 -307.851ZM999.529 556.094C996.713 554.275 993.879 552.501 991.028 550.772L991.806 549.489C994.669 551.226 997.515 553.007 1000.34 554.834L999.529 556.094ZM1016.06 567.456C1013.36 565.488 1010.65 563.566 1007.92 561.689L1008.77 560.453C1011.51 562.338 1014.24 564.268 1016.94 566.245L1016.06 567.456ZM982.421 545.713C979.501 544.051 976.564 542.432 973.609 540.856L974.315 539.532C977.282 541.115 980.231 542.74 983.164 544.41L982.421 545.713ZM1031.93 579.777C1029.32 577.628 1026.69 575.527 1024.05 573.475L1024.97 572.289C1027.63 574.351 1030.26 576.461 1032.88 578.619L1031.93 579.777ZM964.69 536.249C961.7 534.755 958.693 533.302 955.671 531.888L956.306 530.53C959.34 531.949 962.358 533.407 965.36 534.907L964.69 536.249ZM1046.97 592.912C1044.52 590.647 1042.06 588.429 1039.57 586.257L1040.56 585.128C1043.05 587.309 1045.53 589.536 1047.99 591.811L1046.97 592.912ZM946.528 527.753C943.462 526.412 940.379 525.11 937.282 523.845L937.849 522.456C940.958 523.726 944.051 525.033 947.129 526.379L946.528 527.753ZM1061.42 607.06C1059.05 604.608 1056.67 602.206 1054.26 599.852L1055.31 598.781C1057.73 601.144 1060.12 603.556 1062.5 606.018L1061.42 607.06ZM927.945 520.159C924.822 518.968 921.685 517.813 918.533 516.692L919.035 515.279C922.198 516.403 925.346 517.563 928.48 518.758L927.945 520.159ZM1074.82 621.731C1072.63 619.192 1070.41 616.7 1068.17 614.255L1069.28 613.243C1071.53 615.698 1073.75 618.2 1075.96 620.749L1074.82 621.731ZM909.044 513.434C905.868 512.381 902.678 511.361 899.475 510.372L899.917 508.938C903.13 509.93 906.33 510.953 909.516 512.01L909.044 513.434ZM1084.59 633.482C1083.52 632.14 1082.44 630.81 1081.36 629.492L1082.52 628.541C1083.61 629.864 1084.69 631.199 1085.76 632.546L1084.59 633.482ZM889.85 507.505C886.642 506.584 883.422 505.692 880.19 504.828L880.577 503.379C883.818 504.245 887.047 505.139 890.264 506.063L889.85 507.505ZM870.458 502.321C867.208 501.513 863.946 500.733 860.673 499.978L861.01 498.516C864.291 499.273 867.561 500.056 870.82 500.865L870.458 502.321ZM850.895 497.804C847.626 497.103 844.346 496.426 841.057 495.772L841.349 494.301C844.646 494.957 847.933 495.635 851.21 496.337L850.895 497.804ZM831.159 493.875C827.881 493.27 824.593 492.685 821.297 492.12L821.551 490.641C824.853 491.208 828.147 491.793 831.432 492.4L831.159 493.875ZM811.391 490.482C808.081 489.955 804.762 489.446 801.436 488.953L801.655 487.469C804.987 487.962 808.311 488.473 811.627 489.001L811.391 490.482ZM791.497 487.533C788.188 487.077 784.872 486.637 781.55 486.21L781.741 484.722C785.068 485.15 788.388 485.591 791.702 486.047L791.497 487.533ZM-202.964 -161.51C-203.904 -162.892 -204.841 -164.286 -205.777 -165.693L-204.527 -166.523C-203.595 -165.121 -202.661 -163.731 -201.724 -162.354L-202.964 -161.51ZM771.562 484.97C768.237 484.571 764.905 484.185 761.568 483.81L761.735 482.319C765.076 482.695 768.412 483.081 771.741 483.481L771.562 484.97ZM-191.452 -145.335C-193.409 -147.963 -195.357 -150.638 -197.296 -153.363L-196.074 -154.232C-194.141 -151.517 -192.2 -148.85 -190.249 -146.231L-191.452 -145.335ZM751.595 482.724C748.266 482.372 744.931 482.03 741.591 481.698L741.74 480.205C745.082 480.538 748.42 480.88 751.753 481.232L751.595 482.724ZM-179.24 -129.675C-181.317 -132.218 -183.385 -134.809 -185.444 -137.449L-184.261 -138.372C-182.209 -135.74 -180.148 -133.158 -178.079 -130.624L-179.24 -129.675ZM-166.331 -114.586C-168.528 -117.037 -170.717 -119.537 -172.898 -122.087L-171.758 -123.062C-169.585 -120.521 -167.403 -118.03 -165.214 -115.587L-166.331 -114.586ZM726.358 480.239C724.764 480.092 723.168 479.946 721.571 479.802L721.706 478.308C725.042 478.609 728.373 478.916 731.701 479.231L731.56 480.724C729.827 480.56 728.093 480.399 726.358 480.239ZM-152.742 -100.117C-155.057 -102.47 -157.365 -104.87 -159.665 -107.32L-158.572 -108.347C-156.28 -105.905 -153.98 -103.514 -151.673 -101.169L-152.742 -100.117ZM-144.276 -91.7499C-144.756 -92.2114 -145.236 -92.6748 -145.716 -93.1401L-144.671 -94.2167C-143.818 -93.3883 -142.963 -92.5661 -142.108 -91.7499H-144.276ZM8.01233 14.4604L8.30688 14.6441L9.10083 13.3714C8.73828 13.1452 8.37549 12.9192 8.01233 12.6933V14.4604ZM711.559 478.918C708.219 478.629 704.874 478.345 701.527 478.064L701.653 476.569C705.001 476.85 708.346 477.134 711.689 477.424L711.559 478.918ZM24.9838 25.3419C22.2394 23.5241 19.4728 21.7247 16.6854 19.9388L17.4947 18.6758C20.2877 20.4654 23.0608 22.269 25.8121 24.0914L24.9838 25.3419ZM41.2663 36.5782C38.5974 34.6516 35.9023 32.7536 33.1829 30.8792L34.0342 29.6441C36.7619 31.5243 39.4659 33.4286 42.1442 35.3619L41.2663 36.5782ZM57.0049 48.5611C54.4384 46.4928 51.8423 44.4632 49.2183 42.4674L50.1263 41.2735C52.761 43.2774 55.3682 45.3156 57.9462 47.3931L57.0049 48.5611ZM72.0029 61.4471C69.5695 59.2115 67.1033 57.0243 64.6061 54.8806L65.5831 53.7425C68.0926 55.8967 70.5715 58.0951 73.0177 60.3425L72.0029 61.4471ZM86.0491 75.3252C83.7862 72.9147 81.4882 70.5608 79.1568 68.2587L80.2107 67.1913C82.5553 69.5064 84.8665 71.8739 87.1428 74.2986L86.0491 75.3252ZM691.509 477.236C688.173 476.963 684.834 476.693 681.493 476.425L681.613 474.929C684.954 475.198 688.294 475.468 691.631 475.741L691.509 477.236ZM99.0093 90.274C96.9323 87.6742 94.8186 85.1377 92.6698 82.6602L93.803 81.6775C95.9648 84.1699 98.0915 86.7219 100.181 89.3377L99.0093 90.274ZM106.242 97.2501H106.144L106.208 97.203L106.242 97.2501ZM671.464 475.622L669.101 475.434C666.545 475.23 663.989 475.026 661.432 474.822L661.552 473.326C664.897 473.594 668.241 473.86 671.583 474.127L671.464 475.622ZM651.412 474.017C648.071 473.747 644.73 473.475 641.388 473.2L641.511 471.705C642.756 471.808 644.002 471.91 645.247 472.012C647.343 472.183 649.438 472.353 651.533 472.522L651.412 474.017ZM631.361 472.363C628.019 472.08 624.678 471.793 621.338 471.5L621.469 470.006C624.808 470.299 628.147 470.586 631.487 470.869L631.361 472.363ZM611.318 470.603C607.979 470.298 604.641 469.985 601.304 469.665L601.447 468.172C604.782 468.492 608.118 468.804 611.455 469.109L611.318 470.603ZM591.29 468.678C587.951 468.34 584.614 467.993 581.279 467.636L581.438 466.144C584.77 466.502 588.105 466.848 591.441 467.186L591.29 468.678ZM571.281 466.531C567.949 466.152 564.62 465.76 561.294 465.356L561.475 463.867C564.797 464.271 568.122 464.662 571.45 465.041L571.281 466.531ZM551.299 464.102C547.971 463.67 544.646 463.224 541.325 462.763L541.531 461.277C544.848 461.738 548.168 462.183 551.492 462.614L551.299 464.102ZM531.375 461.333C528.052 460.839 524.733 460.328 521.42 459.8L521.656 458.318C524.964 458.846 528.278 459.356 531.596 459.849L531.375 461.333ZM173.342 231.474C171.716 228.613 170.104 225.717 168.503 222.785L169.819 222.066C171.416 224.991 173.025 227.88 174.646 230.733L173.342 231.474ZM511.485 458.158C508.178 457.593 504.877 457.008 501.581 456.404L501.852 454.928C505.142 455.532 508.437 456.115 511.738 456.68L511.485 458.158ZM183.587 248.789C181.796 245.883 180.017 242.937 178.253 239.951L179.544 239.188C181.304 242.166 183.077 245.104 184.864 248.002L183.587 248.789ZM491.696 454.524C488.399 453.875 485.108 453.205 481.824 452.512L482.134 451.044C485.411 451.736 488.695 452.405 491.985 453.053L491.696 454.524ZM194.501 265.766C192.656 263.014 190.823 260.224 189.004 257.394L190.266 256.583C192.08 259.404 193.907 262.186 195.747 264.93L194.501 265.766ZM471.992 450.362C468.721 449.622 465.457 448.858 462.2 448.068L462.554 446.611C465.803 447.398 469.059 448.161 472.323 448.899L471.992 450.362ZM205.986 282.175C204.002 279.46 202.031 276.704 200.075 273.906L201.305 273.047C203.255 275.836 205.219 278.584 207.197 281.291L205.986 282.175ZM452.428 445.616C449.178 444.773 445.937 443.902 442.704 443.004L443.105 441.559C446.33 442.455 449.563 443.323 452.805 444.164L452.428 445.616ZM218.263 298.25C216.189 295.653 214.129 293.016 212.082 290.337L213.274 289.426C215.314 292.097 217.368 294.726 219.435 297.314L218.263 298.25ZM433.03 440.226C429.813 439.271 426.605 438.286 423.407 437.272L423.86 435.842C427.05 436.854 430.249 437.835 433.457 438.788L433.03 440.226ZM231.114 313.627C228.904 311.1 226.708 308.531 224.526 305.919L225.677 304.957C227.851 307.561 230.04 310.121 232.243 312.639L231.114 313.627ZM413.839 434.135C410.66 433.059 407.49 431.95 404.33 430.809L404.84 429.399C407.99 430.536 411.15 431.641 414.32 432.715L413.839 434.135ZM244.765 328.515C242.461 326.119 240.172 323.681 237.896 321.2L239.002 320.186C241.269 322.659 243.551 325.088 245.846 327.476L244.765 328.515ZM394.898 427.293C391.771 426.089 388.654 424.852 385.549 423.58L386.118 422.192C389.213 423.46 392.319 424.693 395.436 425.893L394.898 427.293ZM259.039 342.663C256.584 340.345 254.144 337.984 251.718 335.578L252.775 334.513C255.191 336.91 257.623 339.263 260.069 341.572L259.039 342.663ZM376.267 419.658C373.186 418.315 370.118 416.937 367.061 415.521L367.691 414.16C370.738 415.571 373.796 416.945 376.866 418.283L376.267 419.658ZM268.012 350.882C267.503 350.429 266.994 349.975 266.486 349.518L267.488 348.402C267.663 348.559 267.838 348.716 268.012 348.872V350.882ZM339.008 401.25C339.377 401.456 339.746 401.661 340.116 401.865L340.456 401.25H339.008ZM358.005 411.199C354.999 409.721 352.004 408.205 349.023 406.649L349.716 405.319C352.688 406.869 355.671 408.38 358.667 409.853L358.005 411.199Z" fill="#496E0D"/>
</svg>
