<svg width="120" height="102" viewBox="0 0 120 102" fill="none" xmlns="http://www.w3.org/2000/svg">
<path opacity="0.5" fill-rule="evenodd" clip-rule="evenodd" d="M-240.643 -432.197C-243.38 -434.034 -246.116 -435.825 -248.849 -437.57L-248.042 -438.834C-245.299 -437.083 -242.553 -435.286 -239.807 -433.442L-240.643 -432.197ZM-224.554 -420.852C-227.212 -422.82 -229.872 -424.741 -232.533 -426.617L-231.668 -427.843C-228.998 -425.96 -226.329 -424.032 -223.662 -422.058L-224.554 -420.852ZM-257.228 -442.785C-260.042 -444.492 -262.852 -446.151 -265.655 -447.765L-264.907 -449.065C-262.094 -447.446 -259.274 -445.78 -256.451 -444.068L-257.228 -442.785ZM-208.989 -408.773C-211.567 -410.87 -214.15 -412.921 -216.736 -414.927L-215.816 -416.112C-213.221 -414.099 -210.63 -412.041 -208.042 -409.936L-208.989 -408.773ZM-274.279 -452.598C-277.169 -454.174 -280.05 -455.702 -282.92 -457.184L-282.232 -458.517C-279.352 -457.03 -276.46 -455.496 -273.561 -453.915L-274.279 -452.598ZM-194.008 -396.013C-196.493 -398.229 -198.985 -400.399 -201.482 -402.526L-200.51 -403.668C-198.004 -401.534 -195.504 -399.356 -193.01 -397.133L-194.008 -396.013ZM-291.76 -461.619C-294.723 -463.063 -297.673 -464.459 -300.608 -465.808L-299.982 -467.171C-297.037 -465.817 -294.076 -464.416 -291.103 -462.967L-291.76 -461.619ZM-179.659 -382.635C-182.029 -384.945 -184.408 -387.212 -186.793 -389.435L-185.77 -390.533C-183.377 -388.301 -180.99 -386.027 -178.612 -383.709L-179.659 -382.635ZM-309.631 -469.831C-312.668 -471.144 -315.685 -472.407 -318.681 -473.623L-318.117 -475.013C-315.111 -473.793 -312.083 -472.525 -309.036 -471.208L-309.631 -469.831ZM-165.902 -368.621C-168.152 -371.016 -170.412 -373.369 -172.681 -375.68L-171.61 -376.731C-169.334 -374.412 -167.067 -372.052 -164.808 -369.649L-165.902 -368.621ZM-327.847 -477.222C-330.958 -478.402 -334.042 -479.532 -337.096 -480.614L-336.596 -482.028C-333.531 -480.943 -330.436 -479.809 -327.315 -478.624L-327.847 -477.222ZM-152.74 -353.996C-154.876 -356.474 -157.023 -358.912 -159.179 -361.31L-158.064 -362.313C-155.901 -359.907 -153.747 -357.462 -151.604 -354.975L-152.74 -353.996ZM-346.355 -483.775C-349.541 -484.823 -352.691 -485.819 -355.8 -486.765L-355.364 -488.2C-352.244 -487.251 -349.083 -486.252 -345.886 -485.2L-346.355 -483.775ZM-140.175 -338.777C-142.234 -341.381 -144.306 -343.944 -146.39 -346.467L-145.233 -347.422C-143.143 -344.891 -141.065 -342.32 -138.998 -339.707L-140.175 -338.777ZM-365.185 -489.504C-368.414 -490.407 -371.593 -491.257 -374.717 -492.055L-374.346 -493.508C-371.21 -492.707 -368.021 -491.855 -364.781 -490.949L-365.185 -489.504ZM-128.302 -323.118C-130.256 -325.807 -132.223 -328.455 -134.202 -331.065L-133.007 -331.971C-131.021 -329.354 -129.048 -326.697 -127.088 -324L-128.302 -323.118ZM-384.311 -494.39C-387.565 -495.143 -390.751 -495.84 -393.863 -496.486L-393.558 -497.955C-390.435 -497.307 -387.238 -496.607 -383.973 -495.852L-384.311 -494.39ZM-117.091 -307.033C-118.917 -309.765 -120.756 -312.459 -122.607 -315.116L-121.376 -315.974C-119.519 -313.309 -117.675 -310.607 -115.844 -307.866L-117.091 -307.033ZM-403.505 -498.37C-406.863 -498.986 -410.119 -499.541 -413.265 -500.04L-413.03 -501.522C-409.872 -501.021 -406.605 -500.464 -403.234 -499.846L-403.505 -498.37ZM-106.459 -290.441C-108.178 -293.238 -109.909 -295.999 -111.654 -298.723L-110.391 -299.532C-108.641 -296.8 -106.904 -294.031 -105.181 -291.226L-106.459 -290.441ZM-423.021 -501.468C-426.448 -501.926 -429.709 -502.316 -432.793 -502.648L-432.632 -504.14C-429.537 -503.806 -426.262 -503.414 -422.822 -502.955L-423.021 -501.468ZM-96.4382 -273.426C-98.0801 -276.335 -99.7365 -279.206 -101.407 -282.042L-100.114 -282.803C-98.4394 -279.96 -96.7784 -277.08 -95.132 -274.164L-96.4382 -273.426ZM-442.59 -503.569C-446.206 -503.857 -449.465 -504.059 -452.337 -504.2L-452.264 -505.698C-449.377 -505.557 -446.102 -505.354 -442.471 -505.064L-442.59 -503.569ZM-87.1259 -256.226C-88.6416 -259.146 -90.1717 -262.032 -91.7157 -264.884L-90.3966 -265.598C-88.8485 -262.738 -87.3143 -259.845 -85.7946 -256.917L-87.1259 -256.226ZM-462.229 -504.494C-463.773 -504.507 -464.954 -504.497 -465.747 -504.484C-466.03 -504.48 -466.263 -504.475 -466.446 -504.47L-466.645 -504.465L-466.869 -504.459L-466.925 -504.457L-466.939 -504.456L-466.942 -504.456L-466.971 -505.206L-467 -505.955L-466.994 -505.955L-466.979 -505.956L-466.919 -505.958L-466.686 -505.965C-466.48 -505.97 -466.174 -505.978 -465.772 -505.984C-464.966 -505.997 -463.773 -506.007 -462.217 -505.994L-462.229 -504.494ZM-78.3398 -238.564C-79.7531 -241.529 -81.1808 -244.462 -82.6227 -247.362L-81.2795 -248.029C-79.8339 -245.122 -78.4026 -242.182 -76.9858 -239.209L-78.3398 -238.564ZM-70.1588 -220.647C-71.493 -223.698 -72.842 -226.717 -74.2057 -229.703L-72.8412 -230.326C-71.4742 -227.332 -70.1219 -224.306 -68.7845 -221.248L-70.1588 -220.647ZM-62.5902 -202.573C-63.8063 -205.607 -65.0368 -208.61 -66.2814 -211.584L-64.8976 -212.163C-63.6502 -209.182 -62.4168 -206.172 -61.1979 -203.131L-62.5902 -202.573ZM-55.4798 -184.025C-56.6335 -187.174 -57.8022 -190.291 -58.9859 -193.379L-57.5853 -193.916C-56.399 -190.821 -55.2275 -187.697 -54.0713 -184.541L-55.4798 -184.025ZM-49.035 -165.632C-50.0806 -168.755 -51.1406 -171.848 -52.2148 -174.914L-50.7992 -175.41C-49.7227 -172.338 -48.6604 -169.237 -47.6127 -166.108L-49.035 -165.632ZM-44.4298 -151.385C-44.9303 -152.99 -45.4346 -154.587 -45.9426 -156.177L-44.5138 -156.634C-44.0047 -155.04 -43.4994 -153.44 -42.9979 -151.832C-42.1949 -149.257 -41.5695 -147.182 -41.0516 -145.422L-42.4905 -144.999C-43.0062 -146.751 -43.6293 -148.818 -44.4298 -151.385ZM-36.4184 -125.851C-37.3556 -128.424 -38.0689 -130.452 -38.6493 -132.175L-37.2278 -132.654C-36.6523 -130.946 -35.9434 -128.929 -35.009 -126.365L-36.4184 -125.851ZM1237.53 738.094C1234.71 736.275 1231.88 734.501 1229.03 732.772L1229.81 731.489C1232.67 733.226 1235.51 735.007 1238.34 736.834L1237.53 738.094ZM1254.06 749.456C1251.36 747.488 1248.65 745.566 1245.92 743.689L1246.77 742.453C1249.51 744.338 1252.24 746.268 1254.94 748.245L1254.06 749.456ZM1220.42 727.713C1217.5 726.051 1214.56 724.432 1211.61 722.856L1212.32 721.532C1215.28 723.115 1218.23 724.74 1221.16 726.41L1220.42 727.713ZM1269.93 761.777C1267.32 759.628 1264.69 757.527 1262.05 755.475L1262.97 754.289C1265.63 756.351 1268.26 758.461 1270.88 760.619L1269.93 761.777ZM1202.69 718.249C1199.7 716.755 1196.69 715.302 1193.67 713.888L1194.31 712.53C1197.34 713.949 1200.36 715.407 1203.36 716.907L1202.69 718.249ZM1284.97 774.912C1282.52 772.647 1280.06 770.429 1277.57 768.257L1278.56 767.128C1281.05 769.309 1283.53 771.536 1285.99 773.811L1284.97 774.912ZM1184.53 709.753C1181.46 708.412 1178.38 707.11 1175.28 705.845L1175.85 704.456C1178.96 705.726 1182.05 707.033 1185.13 708.379L1184.53 709.753ZM1299.42 789.06C1297.05 786.608 1294.67 784.206 1292.26 781.852L1293.31 780.781C1295.73 783.144 1298.12 785.556 1300.5 788.018L1299.42 789.06ZM1165.95 702.159C1162.82 700.968 1159.68 699.813 1156.53 698.692L1157.04 697.279C1160.2 698.403 1163.35 699.563 1166.48 700.758L1165.95 702.159ZM1312.82 803.731C1310.63 801.192 1308.41 798.7 1306.17 796.255L1307.28 795.243C1309.53 797.698 1311.75 800.2 1313.96 802.749L1312.82 803.731ZM1147.04 695.434C1143.87 694.381 1140.68 693.361 1137.47 692.372L1137.92 690.938C1141.13 691.93 1144.33 692.953 1147.52 694.01L1147.04 695.434ZM1322.59 815.482C1321.52 814.14 1320.44 812.81 1319.36 811.492L1320.52 810.541C1321.61 811.864 1322.69 813.199 1323.76 814.546L1322.59 815.482ZM1127.85 689.505C1124.64 688.584 1121.42 687.692 1118.19 686.828L1118.58 685.379C1121.82 686.245 1125.05 687.139 1128.26 688.063L1127.85 689.505ZM1108.46 684.321C1105.21 683.513 1101.95 682.733 1098.67 681.978L1099.01 680.516C1102.29 681.273 1105.56 682.056 1108.82 682.865L1108.46 684.321ZM1088.9 679.804C1085.63 679.103 1082.35 678.426 1079.06 677.772L1079.35 676.301C1082.65 676.957 1085.93 677.635 1089.21 678.337L1088.9 679.804ZM1069.16 675.875C1065.88 675.27 1062.59 674.685 1059.3 674.12L1059.55 672.641C1062.85 673.208 1066.15 673.793 1069.43 674.4L1069.16 675.875ZM1049.39 672.482C1046.08 671.955 1042.76 671.446 1039.44 670.953L1039.66 669.469C1042.99 669.962 1046.31 670.473 1049.63 671.001L1049.39 672.482ZM1029.5 669.533C1026.19 669.077 1022.87 668.637 1019.55 668.21L1019.74 666.722C1023.07 667.15 1026.39 667.591 1029.7 668.047L1029.5 669.533ZM35.0361 20.4898C34.0961 19.1078 33.1586 17.7137 32.2234 16.3072L33.4726 15.4768C34.4047 16.8788 35.3394 18.2686 36.2764 19.6462L35.0361 20.4898ZM1009.56 666.97C1006.24 666.571 1002.91 666.185 999.568 665.81L999.735 664.319C1003.08 664.695 1006.41 665.081 1009.74 665.481L1009.56 666.97ZM46.5477 36.6648C44.5907 34.0371 42.6428 31.3619 40.7042 28.6375L41.9264 27.7678C43.8586 30.4834 45.8003 33.1499 47.7506 35.7688L46.5477 36.6648ZM989.595 664.724C986.266 664.372 982.931 664.03 979.591 663.698L979.74 662.205C983.082 662.538 986.42 662.88 989.753 663.232L989.595 664.724ZM58.7596 52.3247C56.6833 49.7821 54.6154 47.1913 52.5565 44.5506L53.7394 43.6283C55.7914 46.2602 57.8522 48.8421 59.9214 51.3759L58.7596 52.3247ZM71.6689 67.4138C69.4719 64.9626 67.2825 62.4631 65.1016 59.9133L66.2416 58.9383C68.4149 61.4792 70.5966 63.97 72.7859 66.4126L71.6689 67.4138ZM964.358 662.239C962.764 662.092 961.168 661.946 959.571 661.802L959.706 660.308C963.042 660.609 966.373 660.916 969.701 661.231L969.56 662.724C967.827 662.56 966.093 662.399 964.358 662.239ZM85.2579 81.8827C82.9431 79.5302 80.635 77.13 78.3347 74.6799L79.4282 73.6532C81.7205 76.0947 84.0203 78.4864 86.327 80.8306L85.2579 81.8827ZM93.7238 90.2501C93.2437 89.7886 92.7639 89.3252 92.2843 88.8599L93.3288 87.7833C94.1825 88.6117 95.037 89.4339 95.8923 90.2501H93.7238ZM246.012 196.46L246.307 196.644L247.101 195.371C246.738 195.145 246.375 194.919 246.012 194.693V196.46ZM949.559 660.918C946.219 660.629 942.874 660.345 939.527 660.064L939.653 658.569C943.001 658.85 946.346 659.134 949.689 659.424L949.559 660.918ZM262.984 207.342C260.239 205.524 257.473 203.725 254.685 201.939L255.495 200.676C258.288 202.465 261.061 204.269 263.812 206.091L262.984 207.342ZM279.266 218.578C276.597 216.652 273.902 214.754 271.183 212.879L272.034 211.644C274.762 213.524 277.466 215.429 280.144 217.362L279.266 218.578ZM295.005 230.561C292.438 228.493 289.842 226.463 287.218 224.467L288.126 223.274C290.761 225.277 293.368 227.316 295.946 229.393L295.005 230.561ZM310.003 243.447C307.57 241.212 305.103 239.024 302.606 236.881L303.583 235.742C306.093 237.897 308.571 240.095 311.018 242.343L310.003 243.447ZM324.049 257.325C321.786 254.915 319.488 252.561 317.157 250.259L318.211 249.191C320.555 251.506 322.867 253.874 325.143 256.299L324.049 257.325ZM929.509 659.236C926.173 658.963 922.834 658.693 919.493 658.425L919.613 656.929C922.954 657.198 926.294 657.468 929.631 657.741L929.509 659.236ZM337.009 272.274C334.932 269.674 332.819 267.138 330.67 264.66L331.803 263.677C333.965 266.17 336.091 268.722 338.181 271.338L337.009 272.274ZM344.242 279.25H344.144L344.208 279.203L344.242 279.25ZM909.464 657.622L907.101 657.434C904.545 657.23 901.989 657.026 899.432 656.822L899.552 655.326C902.897 655.594 906.241 655.86 909.583 656.127L909.464 657.622ZM889.412 656.017C886.071 655.747 882.73 655.475 879.388 655.2L879.511 653.705C880.756 653.808 882.002 653.91 883.247 654.012C885.343 654.183 887.438 654.353 889.533 654.522L889.412 656.017ZM869.361 654.363C866.019 654.08 862.678 653.793 859.338 653.5L859.469 652.006C862.808 652.299 866.147 652.586 869.487 652.869L869.361 654.363ZM849.318 652.603C845.979 652.298 842.641 651.985 839.304 651.665L839.447 650.172C842.782 650.492 846.118 650.804 849.455 651.109L849.318 652.603ZM829.29 650.678C825.951 650.34 822.614 649.993 819.279 649.636L819.438 648.144C822.77 648.502 826.105 648.848 829.441 649.186L829.29 650.678ZM809.281 648.531C805.949 648.152 802.62 647.76 799.294 647.356L799.475 645.867C802.797 646.271 806.122 646.662 809.45 647.041L809.281 648.531ZM789.299 646.102C785.971 645.67 782.646 645.224 779.325 644.763L779.531 643.277C782.848 643.738 786.168 644.183 789.492 644.614L789.299 646.102ZM769.375 643.333C766.052 642.839 762.733 642.328 759.42 641.8L759.656 640.318C762.964 640.846 766.278 641.356 769.596 641.849L769.375 643.333ZM411.342 413.474C409.716 410.613 408.104 407.717 406.503 404.785L407.819 404.066C409.416 406.991 411.025 409.88 412.646 412.733L411.342 413.474ZM749.485 640.158C746.178 639.593 742.877 639.008 739.581 638.404L739.852 636.928C743.142 637.532 746.437 638.115 749.738 638.68L749.485 640.158ZM421.587 430.789C419.796 427.883 418.017 424.937 416.253 421.951L417.544 421.188C419.304 424.166 421.077 427.104 422.864 430.002L421.587 430.789ZM729.696 636.524C726.399 635.875 723.108 635.205 719.824 634.512L720.134 633.044C723.411 633.736 726.695 634.405 729.985 635.053L729.696 636.524ZM432.501 447.766C430.656 445.014 428.823 442.224 427.004 439.394L428.266 438.583C430.08 441.404 431.907 444.186 433.747 446.93L432.501 447.766ZM709.992 632.362C706.721 631.622 703.457 630.858 700.2 630.068L700.554 628.611C703.803 629.398 707.059 630.161 710.323 630.899L709.992 632.362ZM443.986 464.175C442.002 461.46 440.031 458.704 438.075 455.906L439.305 455.047C441.255 457.836 443.219 460.584 445.197 463.291L443.986 464.175ZM690.428 627.616C687.178 626.773 683.937 625.902 680.704 625.004L681.105 623.559C684.33 624.455 687.563 625.323 690.805 626.164L690.428 627.616ZM456.263 480.25C454.189 477.653 452.129 475.016 450.082 472.337L451.274 471.426C453.314 474.097 455.368 476.726 457.435 479.314L456.263 480.25ZM671.03 622.226C667.813 621.271 664.605 620.286 661.407 619.272L661.86 617.842C665.05 618.854 668.249 619.835 671.457 620.788L671.03 622.226ZM469.114 495.627C466.904 493.1 464.708 490.531 462.526 487.919L463.677 486.957C465.851 489.561 468.04 492.121 470.243 494.639L469.114 495.627ZM651.839 616.135C648.66 615.059 645.49 613.95 642.33 612.809L642.84 611.399C645.99 612.536 649.15 613.641 652.32 614.715L651.839 616.135ZM482.765 510.515C480.461 508.119 478.172 505.681 475.896 503.2L477.002 502.186C479.269 504.659 481.551 507.088 483.846 509.476L482.765 510.515ZM632.898 609.293C629.771 608.089 626.654 606.852 623.549 605.58L624.118 604.192C627.213 605.46 630.319 606.693 633.436 607.893L632.898 609.293ZM497.039 524.663C494.584 522.345 492.144 519.984 489.718 517.578L490.775 516.513C493.191 518.91 495.623 521.263 498.069 523.572L497.039 524.663ZM614.267 601.658C611.186 600.315 608.118 598.937 605.061 597.521L605.691 596.16C608.738 597.571 611.796 598.945 614.866 600.283L614.267 601.658ZM506.012 532.882C505.503 532.429 504.994 531.975 504.486 531.518L505.488 530.402C505.663 530.559 505.838 530.716 506.012 530.872V532.882ZM577.008 583.25C577.377 583.456 577.746 583.661 578.116 583.865L578.456 583.25H577.008ZM596.005 593.199C592.999 591.721 590.004 590.205 587.023 588.649L587.716 587.319C590.688 588.869 593.671 590.38 596.667 591.853L596.005 593.199Z" fill="#496E0D"/>
</svg>
