<svg width="500" height="431" viewBox="0 0 500 431" fill="none" xmlns="http://www.w3.org/2000/svg">
<path opacity="0.5" fill-rule="evenodd" clip-rule="evenodd" d="M259.357 108.803C256.62 106.966 253.884 105.175 251.151 103.43L251.958 102.166C254.701 103.917 257.447 105.714 260.193 107.558L259.357 108.803ZM275.446 120.148C272.788 118.18 270.128 116.259 267.467 114.383L268.332 113.157C271.002 115.04 273.671 116.968 276.338 118.942L275.446 120.148ZM242.772 98.2149C239.958 96.5082 237.148 94.8486 234.345 93.2348L235.093 91.9347C237.906 93.5542 240.726 95.2197 243.549 96.9324L242.772 98.2149ZM291.011 132.227C288.433 130.13 285.85 128.079 283.264 126.073L284.184 124.888C286.779 126.901 289.37 128.959 291.958 131.064L291.011 132.227ZM225.721 88.4019C222.831 86.8262 219.95 85.2982 217.08 83.8164L217.768 82.4835C220.648 83.9705 223.54 85.5038 226.439 87.085L225.721 88.4019ZM305.992 144.987C303.507 142.771 301.015 140.601 298.518 138.474L299.49 137.332C301.996 139.466 304.496 141.644 306.99 143.867L305.992 144.987ZM208.24 79.3815C205.277 77.9371 202.327 76.5413 199.392 75.1923L200.018 73.8293C202.963 75.1829 205.924 76.5838 208.897 78.0331L208.24 79.3815ZM320.341 158.365C317.971 156.055 315.592 153.788 313.207 151.565L314.23 150.467C316.623 152.699 319.01 154.973 321.388 157.291L320.341 158.365ZM190.369 71.1689C187.332 69.8561 184.315 68.5929 181.319 67.3772L181.883 65.9873C184.889 67.2071 187.917 68.4747 190.964 69.792L190.369 71.1689ZM334.098 172.379C331.848 169.984 329.588 167.631 327.319 165.32L328.39 164.269C330.666 166.588 332.933 168.948 335.192 171.351L334.098 172.379ZM172.153 63.7785C169.042 62.5976 165.958 61.4676 162.904 60.3864L163.404 58.9722C166.469 60.0573 169.564 61.1912 172.685 62.3762L172.153 63.7785ZM347.26 187.004C345.124 184.526 342.977 182.088 340.821 179.69L341.936 178.687C344.099 181.093 346.253 183.538 348.396 186.025L347.26 187.004ZM153.645 57.225C150.459 56.1766 147.309 55.181 144.2 54.2355L144.636 52.8004C147.756 53.7491 150.917 54.7481 154.114 55.8002L153.645 57.225ZM359.825 202.223C357.766 199.619 355.694 197.056 353.61 194.533L354.767 193.578C356.857 196.109 358.935 198.68 361.002 201.293L359.825 202.223ZM134.815 51.496C131.586 50.5926 128.407 49.7434 125.283 48.9451L125.654 47.4917C128.79 48.2929 131.979 49.1451 135.219 50.0514L134.815 51.496ZM371.698 217.882C369.744 215.193 367.777 212.545 365.798 209.935L366.993 209.029C368.979 211.646 370.952 214.303 372.912 217L371.698 217.882ZM115.689 46.6097C112.435 45.8568 109.249 45.1596 106.137 44.5139L106.442 43.0452C109.565 43.6932 112.762 44.3929 116.027 45.1483L115.689 46.6097ZM382.909 233.967C381.083 231.235 379.244 228.541 377.393 225.884L378.624 225.026C380.481 227.691 382.325 230.393 384.156 233.134L382.909 233.967ZM96.4949 42.6295C93.1368 42.0138 89.8808 41.459 86.7352 40.9597L86.9704 39.4782C90.1277 39.9795 93.3953 40.5361 96.7656 41.1542L96.4949 42.6295ZM393.541 250.559C391.822 247.762 390.091 245.001 388.346 242.277L389.609 241.468C391.359 244.2 393.096 246.969 394.819 249.774L393.541 250.559ZM76.9789 39.5322C73.5519 39.0739 70.2905 38.6839 67.2071 38.3518L67.3678 36.8605C70.4635 37.1938 73.7378 37.5855 77.1778 38.0455L76.9789 39.5322ZM403.562 267.574C401.92 264.665 400.264 261.794 398.593 258.958L399.886 258.197C401.561 261.04 403.222 263.92 404.868 266.836L403.562 267.574ZM57.4097 37.4313C53.7944 37.1426 50.535 36.9406 47.6631 36.8002L47.7363 35.3021C50.623 35.443 53.8979 35.646 57.5292 35.9361L57.4097 37.4313ZM412.874 284.774C411.358 281.854 409.828 278.968 408.284 276.116L409.603 275.402C411.152 278.262 412.686 281.155 414.205 284.083L412.874 284.774ZM37.7714 36.5056C36.2274 36.4933 35.0464 36.5031 34.2525 36.5157C33.9705 36.5202 33.7373 36.5251 33.5543 36.5296L33.3553 36.5346L33.1306 36.5415L33.0749 36.5433L33.0614 36.5437L33.0584 36.5439L33.0289 35.7945L33 35.045L33.0059 35.0449L33.0213 35.0442L33.0809 35.0422L33.3143 35.0352C33.52 35.0296 33.8259 35.0224 34.2285 35.0159C35.034 35.0031 36.2271 34.9934 37.7834 35.0057L37.7714 36.5056ZM421.66 302.436C420.247 299.471 418.819 296.538 417.377 293.638L418.721 292.971C420.166 295.878 421.597 298.818 423.014 301.791L421.66 302.436ZM429.841 320.353C428.507 317.302 427.158 314.283 425.794 311.297L427.159 310.674C428.526 313.668 429.878 316.694 431.215 319.752L429.841 320.353ZM437.41 338.427C436.194 335.393 434.963 332.39 433.719 329.416L435.102 328.837C436.35 331.818 437.583 334.828 438.802 337.869L437.41 338.427ZM444.52 356.975C443.367 353.826 442.198 350.709 441.014 347.621L442.415 347.084C443.601 350.179 444.772 353.303 445.929 356.459L444.52 356.975ZM450.965 375.368C449.919 372.245 448.859 369.152 447.785 366.086L449.201 365.59C450.277 368.662 451.34 371.763 452.387 374.892L450.965 375.368ZM455.57 389.615C455.07 388.01 454.565 386.413 454.057 384.823L455.486 384.366C455.995 385.96 456.501 387.56 457.002 389.168C457.805 391.743 458.431 393.818 458.948 395.578L457.509 396.001C456.994 394.249 456.371 392.182 455.57 389.615ZM463.582 415.149C462.644 412.576 461.931 410.548 461.351 408.825L462.772 408.346C463.348 410.054 464.057 412.071 464.991 414.635L463.582 415.149ZM1737.53 1279.09C1734.71 1277.28 1731.88 1275.5 1729.03 1273.77L1729.81 1272.49C1732.67 1274.23 1735.51 1276.01 1738.34 1277.83L1737.53 1279.09ZM1754.06 1290.46C1751.36 1288.49 1748.65 1286.57 1745.92 1284.69L1746.77 1283.45C1749.51 1285.34 1752.24 1287.27 1754.94 1289.24L1754.06 1290.46ZM1720.42 1268.71C1717.5 1267.05 1714.56 1265.43 1711.61 1263.86L1712.32 1262.53C1715.28 1264.11 1718.23 1265.74 1721.16 1267.41L1720.42 1268.71ZM1769.93 1302.78C1767.32 1300.63 1764.69 1298.53 1762.05 1296.47L1762.97 1295.29C1765.63 1297.35 1768.26 1299.46 1770.88 1301.62L1769.93 1302.78ZM1702.69 1259.25C1699.7 1257.75 1696.69 1256.3 1693.67 1254.89L1694.31 1253.53C1697.34 1254.95 1700.36 1256.41 1703.36 1257.91L1702.69 1259.25ZM1784.97 1315.91C1782.52 1313.65 1780.06 1311.43 1777.57 1309.26L1778.56 1308.13C1781.05 1310.31 1783.53 1312.54 1785.99 1314.81L1784.97 1315.91ZM1684.53 1250.75C1681.46 1249.41 1678.38 1248.11 1675.28 1246.84L1675.85 1245.46C1678.96 1246.73 1682.05 1248.03 1685.13 1249.38L1684.53 1250.75ZM1799.42 1330.06C1797.05 1327.61 1794.67 1325.21 1792.26 1322.85L1793.31 1321.78C1795.73 1324.14 1798.12 1326.56 1800.5 1329.02L1799.42 1330.06ZM1665.95 1243.16C1662.82 1241.97 1659.68 1240.81 1656.53 1239.69L1657.04 1238.28C1660.2 1239.4 1663.35 1240.56 1666.48 1241.76L1665.95 1243.16ZM1812.82 1344.73C1810.63 1342.19 1808.41 1339.7 1806.17 1337.26L1807.28 1336.24C1809.53 1338.7 1811.75 1341.2 1813.96 1343.75L1812.82 1344.73ZM1647.04 1236.43C1643.87 1235.38 1640.68 1234.36 1637.47 1233.37L1637.92 1231.94C1641.13 1232.93 1644.33 1233.95 1647.52 1235.01L1647.04 1236.43ZM1822.59 1356.48C1821.52 1355.14 1820.44 1353.81 1819.36 1352.49L1820.52 1351.54C1821.61 1352.86 1822.69 1354.2 1823.76 1355.55L1822.59 1356.48ZM1627.85 1230.51C1624.64 1229.58 1621.42 1228.69 1618.19 1227.83L1618.58 1226.38C1621.82 1227.24 1625.05 1228.14 1628.26 1229.06L1627.85 1230.51ZM1608.46 1225.32C1605.21 1224.51 1601.95 1223.73 1598.67 1222.98L1599.01 1221.52C1602.29 1222.27 1605.56 1223.06 1608.82 1223.86L1608.46 1225.32ZM1588.9 1220.8C1585.63 1220.1 1582.35 1219.43 1579.06 1218.77L1579.35 1217.3C1582.65 1217.96 1585.93 1218.63 1589.21 1219.34L1588.9 1220.8ZM1569.16 1216.87C1565.88 1216.27 1562.59 1215.68 1559.3 1215.12L1559.55 1213.64C1562.85 1214.21 1566.15 1214.79 1569.43 1215.4L1569.16 1216.87ZM1549.39 1213.48C1546.08 1212.95 1542.76 1212.45 1539.44 1211.95L1539.66 1210.47C1542.99 1210.96 1546.31 1211.47 1549.63 1212L1549.39 1213.48ZM1529.5 1210.53C1526.19 1210.08 1522.87 1209.64 1519.55 1209.21L1519.74 1207.72C1523.07 1208.15 1526.39 1208.59 1529.7 1209.05L1529.5 1210.53ZM535.036 561.49C534.096 560.108 533.159 558.714 532.223 557.307L533.473 556.477C534.405 557.879 535.339 559.269 536.276 560.646L535.036 561.49ZM1509.56 1207.97C1506.24 1207.57 1502.91 1207.18 1499.57 1206.81L1499.74 1205.32C1503.08 1205.69 1506.41 1206.08 1509.74 1206.48L1509.56 1207.97ZM546.548 577.665C544.591 575.037 542.643 572.362 540.704 569.637L541.926 568.768C543.859 571.483 545.8 574.15 547.751 576.769L546.548 577.665ZM1489.6 1205.72C1486.27 1205.37 1482.93 1205.03 1479.59 1204.7L1479.74 1203.2C1483.08 1203.54 1486.42 1203.88 1489.75 1204.23L1489.6 1205.72ZM558.76 593.325C556.683 590.782 554.615 588.191 552.556 585.551L553.739 584.628C555.791 587.26 557.852 589.842 559.921 592.376L558.76 593.325ZM571.669 608.414C569.472 605.963 567.283 603.463 565.102 600.913L566.242 599.938C568.415 602.479 570.597 604.97 572.786 607.413L571.669 608.414ZM1464.36 1203.24C1462.76 1203.09 1461.17 1202.95 1459.57 1202.8L1459.71 1201.31C1463.04 1201.61 1466.37 1201.92 1469.7 1202.23L1469.56 1203.72C1467.83 1203.56 1466.09 1203.4 1464.36 1203.24ZM585.258 622.883C582.943 620.53 580.635 618.13 578.335 615.68L579.428 614.653C581.72 617.095 584.02 619.486 586.327 621.831L585.258 622.883ZM593.724 631.25C593.244 630.789 592.764 630.325 592.284 629.86L593.329 628.783C594.182 629.612 595.037 630.434 595.892 631.25H593.724ZM746.012 737.46L746.307 737.644L747.101 736.371C746.738 736.145 746.375 735.919 746.012 735.693V737.46ZM1449.56 1201.92C1446.22 1201.63 1442.87 1201.34 1439.53 1201.06L1439.65 1199.57C1443 1199.85 1446.35 1200.13 1449.69 1200.42L1449.56 1201.92ZM762.984 748.342C760.239 746.524 757.473 744.725 754.685 742.939L755.495 741.676C758.288 743.465 761.061 745.269 763.812 747.091L762.984 748.342ZM779.266 759.578C776.597 757.652 773.902 755.754 771.183 753.879L772.034 752.644C774.762 754.524 777.466 756.429 780.144 758.362L779.266 759.578ZM795.005 771.561C792.438 769.493 789.842 767.463 787.218 765.467L788.126 764.274C790.761 766.277 793.368 768.316 795.946 770.393L795.005 771.561ZM810.003 784.447C807.57 782.212 805.103 780.024 802.606 777.881L803.583 776.742C806.093 778.897 808.571 781.095 811.018 783.343L810.003 784.447ZM824.049 798.325C821.786 795.915 819.488 793.561 817.157 791.259L818.211 790.191C820.555 792.506 822.867 794.874 825.143 797.299L824.049 798.325ZM1429.51 1200.24C1426.17 1199.96 1422.83 1199.69 1419.49 1199.42L1419.61 1197.93C1422.95 1198.2 1426.29 1198.47 1429.63 1198.74L1429.51 1200.24ZM837.009 813.274C834.932 810.674 832.819 808.138 830.67 805.66L831.803 804.677C833.965 807.17 836.091 809.722 838.181 812.338L837.009 813.274ZM844.242 820.25H844.144L844.208 820.203L844.242 820.25ZM1409.46 1198.62L1407.1 1198.43C1404.55 1198.23 1401.99 1198.03 1399.43 1197.82L1399.55 1196.33C1402.9 1196.59 1406.24 1196.86 1409.58 1197.13L1409.46 1198.62ZM1389.41 1197.02C1386.07 1196.75 1382.73 1196.48 1379.39 1196.2L1379.51 1194.71C1380.76 1194.81 1382 1194.91 1383.25 1195.01C1385.34 1195.18 1387.44 1195.35 1389.53 1195.52L1389.41 1197.02ZM1369.36 1195.36C1366.02 1195.08 1362.68 1194.79 1359.34 1194.5L1359.47 1193.01C1362.81 1193.3 1366.15 1193.59 1369.49 1193.87L1369.36 1195.36ZM1349.32 1193.6C1345.98 1193.3 1342.64 1192.99 1339.3 1192.67L1339.45 1191.17C1342.78 1191.49 1346.12 1191.8 1349.45 1192.11L1349.32 1193.6ZM1329.29 1191.68C1325.95 1191.34 1322.61 1190.99 1319.28 1190.64L1319.44 1189.14C1322.77 1189.5 1326.1 1189.85 1329.44 1190.19L1329.29 1191.68ZM1309.28 1189.53C1305.95 1189.15 1302.62 1188.76 1299.29 1188.36L1299.47 1186.87C1302.8 1187.27 1306.12 1187.66 1309.45 1188.04L1309.28 1189.53ZM1289.3 1187.1C1285.97 1186.67 1282.65 1186.22 1279.33 1185.76L1279.53 1184.28C1282.85 1184.74 1286.17 1185.18 1289.49 1185.61L1289.3 1187.1ZM1269.37 1184.33C1266.05 1183.84 1262.73 1183.33 1259.42 1182.8L1259.66 1181.32C1262.96 1181.85 1266.28 1182.36 1269.6 1182.85L1269.37 1184.33ZM911.342 954.474C909.716 951.613 908.104 948.717 906.503 945.785L907.819 945.066C909.416 947.991 911.025 950.88 912.646 953.733L911.342 954.474ZM1249.48 1181.16C1246.18 1180.59 1242.88 1180.01 1239.58 1179.4L1239.85 1177.93C1243.14 1178.53 1246.44 1179.12 1249.74 1179.68L1249.48 1181.16ZM921.587 971.789C919.796 968.883 918.017 965.937 916.253 962.951L917.544 962.188C919.304 965.166 921.077 968.104 922.864 971.002L921.587 971.789ZM1229.7 1177.52C1226.4 1176.88 1223.11 1176.2 1219.82 1175.51L1220.13 1174.04C1223.41 1174.74 1226.69 1175.4 1229.99 1176.05L1229.7 1177.52ZM932.501 988.766C930.656 986.014 928.823 983.224 927.004 980.394L928.266 979.583C930.08 982.404 931.907 985.186 933.747 987.93L932.501 988.766ZM1209.99 1173.36C1206.72 1172.62 1203.46 1171.86 1200.2 1171.07L1200.55 1169.61C1203.8 1170.4 1207.06 1171.16 1210.32 1171.9L1209.99 1173.36ZM943.986 1005.18C942.002 1002.46 940.031 999.704 938.075 996.906L939.305 996.047C941.255 998.836 943.219 1001.58 945.197 1004.29L943.986 1005.18ZM1190.43 1168.62C1187.18 1167.77 1183.94 1166.9 1180.7 1166L1181.1 1164.56C1184.33 1165.45 1187.56 1166.32 1190.8 1167.16L1190.43 1168.62ZM956.263 1021.25C954.189 1018.65 952.129 1016.02 950.082 1013.34L951.274 1012.43C953.314 1015.1 955.368 1017.73 957.435 1020.31L956.263 1021.25ZM1171.03 1163.23C1167.81 1162.27 1164.61 1161.29 1161.41 1160.27L1161.86 1158.84C1165.05 1159.85 1168.25 1160.84 1171.46 1161.79L1171.03 1163.23ZM969.114 1036.63C966.904 1034.1 964.708 1031.53 962.526 1028.92L963.677 1027.96C965.851 1030.56 968.04 1033.12 970.243 1035.64L969.114 1036.63ZM1151.84 1157.14C1148.66 1156.06 1145.49 1154.95 1142.33 1153.81L1142.84 1152.4C1145.99 1153.54 1149.15 1154.64 1152.32 1155.71L1151.84 1157.14ZM982.765 1051.52C980.461 1049.12 978.172 1046.68 975.896 1044.2L977.002 1043.19C979.269 1045.66 981.551 1048.09 983.846 1050.48L982.765 1051.52ZM1132.9 1150.29C1129.77 1149.09 1126.65 1147.85 1123.55 1146.58L1124.12 1145.19C1127.21 1146.46 1130.32 1147.69 1133.44 1148.89L1132.9 1150.29ZM997.039 1065.66C994.584 1063.35 992.144 1060.98 989.718 1058.58L990.775 1057.51C993.191 1059.91 995.623 1062.26 998.069 1064.57L997.039 1065.66ZM1114.27 1142.66C1111.19 1141.32 1108.12 1139.94 1105.06 1138.52L1105.69 1137.16C1108.74 1138.57 1111.8 1139.94 1114.87 1141.28L1114.27 1142.66ZM1006.01 1073.88C1005.5 1073.43 1004.99 1072.97 1004.49 1072.52L1005.49 1071.4C1005.66 1071.56 1005.84 1071.72 1006.01 1071.87V1073.88ZM1077.01 1124.25C1077.38 1124.46 1077.75 1124.66 1078.12 1124.86L1078.46 1124.25H1077.01ZM1096.01 1134.2C1093 1132.72 1090 1131.2 1087.02 1129.65L1087.72 1128.32C1090.69 1129.87 1093.67 1131.38 1096.67 1132.85L1096.01 1134.2Z" fill="#496E0D"/>
</svg>
