<svg width="784" height="259" viewBox="0 0 784 259" fill="none" xmlns="http://www.w3.org/2000/svg">
<path opacity="0.5" fill-rule="evenodd" clip-rule="evenodd" d="M-802.643 -1009.2C-805.38 -1011.03 -808.116 -1012.82 -810.849 -1014.57L-810.042 -1015.83C-807.299 -1014.08 -804.553 -1012.29 -801.807 -1010.44L-802.643 -1009.2ZM-786.554 -997.852C-789.212 -999.82 -791.872 -1001.74 -794.533 -1003.62L-793.668 -1004.84C-790.998 -1002.96 -788.329 -1001.03 -785.662 -999.058L-786.554 -997.852ZM-819.228 -1019.79C-822.042 -1021.49 -824.852 -1023.15 -827.655 -1024.77L-826.907 -1026.07C-824.094 -1024.45 -821.274 -1022.78 -818.451 -1021.07L-819.228 -1019.79ZM-770.989 -985.773C-773.567 -987.87 -776.15 -989.921 -778.736 -991.927L-777.816 -993.112C-775.221 -991.099 -772.63 -989.041 -770.042 -986.936L-770.989 -985.773ZM-836.279 -1029.6C-839.169 -1031.17 -842.05 -1032.7 -844.92 -1034.18L-844.232 -1035.52C-841.352 -1034.03 -838.46 -1032.5 -835.561 -1030.91L-836.279 -1029.6ZM-756.008 -973.013C-758.493 -975.229 -760.985 -977.399 -763.482 -979.526L-762.51 -980.668C-760.004 -978.534 -757.504 -976.356 -755.01 -974.133L-756.008 -973.013ZM-853.76 -1038.62C-856.723 -1040.06 -859.673 -1041.46 -862.608 -1042.81L-861.982 -1044.17C-859.037 -1042.82 -856.076 -1041.42 -853.103 -1039.97L-853.76 -1038.62ZM-741.659 -959.635C-744.029 -961.945 -746.408 -964.212 -748.793 -966.435L-747.77 -967.533C-745.377 -965.301 -742.99 -963.027 -740.612 -960.709L-741.659 -959.635ZM-871.631 -1046.83C-874.668 -1048.14 -877.685 -1049.41 -880.681 -1050.62L-880.117 -1052.01C-877.111 -1050.79 -874.083 -1049.53 -871.036 -1048.21L-871.631 -1046.83ZM-727.902 -945.621C-730.152 -948.016 -732.412 -950.369 -734.681 -952.68L-733.61 -953.731C-731.334 -951.412 -729.067 -949.052 -726.808 -946.649L-727.902 -945.621ZM-889.847 -1054.22C-892.958 -1055.4 -896.042 -1056.53 -899.096 -1057.61L-898.596 -1059.03C-895.531 -1057.94 -892.436 -1056.81 -889.315 -1055.62L-889.847 -1054.22ZM-714.74 -930.996C-716.876 -933.474 -719.023 -935.912 -721.179 -938.31L-720.064 -939.313C-717.901 -936.907 -715.747 -934.462 -713.604 -931.975L-714.74 -930.996ZM-908.355 -1060.78C-911.541 -1061.82 -914.691 -1062.82 -917.8 -1063.76L-917.364 -1065.2C-914.244 -1064.25 -911.083 -1063.25 -907.886 -1062.2L-908.355 -1060.78ZM-702.175 -915.777C-704.234 -918.381 -706.306 -920.944 -708.39 -923.467L-707.233 -924.422C-705.143 -921.891 -703.065 -919.32 -700.998 -916.707L-702.175 -915.777ZM-927.185 -1066.5C-930.414 -1067.41 -933.593 -1068.26 -936.717 -1069.05L-936.346 -1070.51C-933.21 -1069.71 -930.021 -1068.85 -926.781 -1067.95L-927.185 -1066.5ZM-690.302 -900.118C-692.256 -902.807 -694.223 -905.455 -696.202 -908.065L-695.007 -908.971C-693.021 -906.354 -691.048 -903.697 -689.088 -901L-690.302 -900.118ZM-946.311 -1071.39C-949.565 -1072.14 -952.751 -1072.84 -955.863 -1073.49L-955.558 -1074.95C-952.435 -1074.31 -949.238 -1073.61 -945.973 -1072.85L-946.311 -1071.39ZM-679.091 -884.033C-680.917 -886.765 -682.756 -889.459 -684.607 -892.116L-683.376 -892.974C-681.519 -890.309 -679.675 -887.607 -677.844 -884.866L-679.091 -884.033ZM-965.505 -1075.37C-968.863 -1075.99 -972.119 -1076.54 -975.265 -1077.04L-975.03 -1078.52C-971.872 -1078.02 -968.605 -1077.46 -965.234 -1076.85L-965.505 -1075.37ZM-668.459 -867.441C-670.178 -870.238 -671.909 -872.999 -673.654 -875.723L-672.391 -876.532C-670.641 -873.8 -668.904 -871.031 -667.181 -868.226L-668.459 -867.441ZM-985.021 -1078.47C-988.448 -1078.93 -991.709 -1079.32 -994.793 -1079.65L-994.632 -1081.14C-991.537 -1080.81 -988.262 -1080.41 -984.822 -1079.95L-985.021 -1078.47ZM-658.438 -850.426C-660.08 -853.335 -661.736 -856.206 -663.407 -859.042L-662.114 -859.803C-660.439 -856.96 -658.778 -854.08 -657.132 -851.164L-658.438 -850.426ZM-1004.59 -1080.57C-1008.21 -1080.86 -1011.47 -1081.06 -1014.34 -1081.2L-1014.26 -1082.7C-1011.38 -1082.56 -1008.1 -1082.35 -1004.47 -1082.06L-1004.59 -1080.57ZM-649.126 -833.226C-650.642 -836.146 -652.172 -839.032 -653.716 -841.884L-652.397 -842.598C-650.848 -839.738 -649.314 -836.845 -647.795 -833.917L-649.126 -833.226ZM-1024.23 -1081.49C-1025.77 -1081.51 -1026.95 -1081.5 -1027.75 -1081.48C-1028.03 -1081.48 -1028.26 -1081.47 -1028.45 -1081.47L-1028.64 -1081.47L-1028.87 -1081.46L-1028.93 -1081.46L-1028.94 -1081.46L-1028.94 -1081.46L-1028.97 -1082.21L-1029 -1082.96L-1028.99 -1082.96L-1028.98 -1082.96L-1028.92 -1082.96L-1028.69 -1082.96C-1028.48 -1082.97 -1028.17 -1082.98 -1027.77 -1082.98C-1026.97 -1083 -1025.77 -1083.01 -1024.22 -1082.99L-1024.23 -1081.49ZM-640.34 -815.564C-641.753 -818.529 -643.181 -821.462 -644.623 -824.362L-643.279 -825.029C-641.834 -822.122 -640.403 -819.182 -638.986 -816.209L-640.34 -815.564ZM-632.159 -797.647C-633.493 -800.698 -634.842 -803.717 -636.206 -806.703L-634.841 -807.326C-633.474 -804.332 -632.122 -801.306 -630.785 -798.248L-632.159 -797.647ZM-624.59 -779.573C-625.806 -782.607 -627.037 -785.61 -628.281 -788.584L-626.898 -789.163C-625.65 -786.182 -624.417 -783.172 -623.198 -780.131L-624.59 -779.573ZM-617.48 -761.025C-618.633 -764.174 -619.802 -767.291 -620.986 -770.379L-619.585 -770.916C-618.399 -767.821 -617.228 -764.697 -616.071 -761.541L-617.48 -761.025ZM-611.035 -742.632C-612.081 -745.755 -613.141 -748.848 -614.215 -751.914L-612.799 -752.41C-611.723 -749.338 -610.66 -746.237 -609.613 -743.108L-611.035 -742.632ZM-606.43 -728.385C-606.93 -729.99 -607.435 -731.587 -607.943 -733.177L-606.514 -733.634C-606.005 -732.04 -605.499 -730.44 -604.998 -728.832C-604.195 -726.257 -603.569 -724.182 -603.052 -722.422L-604.491 -721.999C-605.006 -723.751 -605.629 -725.818 -606.43 -728.385ZM-598.418 -702.851C-599.356 -705.424 -600.069 -707.452 -600.649 -709.175L-599.228 -709.654C-598.652 -707.946 -597.943 -705.929 -597.009 -703.365L-598.418 -702.851ZM675.529 161.094C672.713 159.275 669.879 157.501 667.028 155.772L667.806 154.489C670.669 156.226 673.515 158.007 676.343 159.834L675.529 161.094ZM692.057 172.456C689.364 170.488 686.652 168.566 683.923 166.689L684.773 165.453C687.514 167.338 690.237 169.268 692.942 171.245L692.057 172.456ZM658.421 150.713C655.501 149.051 652.564 147.432 649.609 145.856L650.315 144.532C653.282 146.115 656.231 147.74 659.164 149.41L658.421 150.713ZM707.93 184.777C705.322 182.628 702.695 180.527 700.049 178.475L700.968 177.289C703.626 179.351 706.264 181.461 708.883 183.619L707.93 184.777ZM640.69 141.249C637.7 139.755 634.693 138.302 631.671 136.888L632.306 135.53C635.34 136.949 638.358 138.407 641.36 139.907L640.69 141.249ZM722.972 197.912C720.523 195.647 718.055 193.429 715.569 191.257L716.556 190.128C719.053 192.309 721.531 194.536 723.991 196.811L722.972 197.912ZM622.528 132.753C619.462 131.412 616.379 130.11 613.282 128.845L613.849 127.456C616.958 128.726 620.051 130.033 623.129 131.379L622.528 132.753ZM737.418 212.06C735.053 209.608 732.668 207.206 730.264 204.852L731.314 203.781C733.727 206.144 736.122 208.556 738.497 211.018L737.418 212.06ZM603.945 125.159C600.822 123.968 597.685 122.813 594.533 121.692L595.035 120.279C598.198 121.403 601.346 122.563 604.48 123.758L603.945 125.159ZM750.824 226.731C748.626 224.192 746.409 221.7 744.175 219.255L745.282 218.243C747.526 220.698 749.751 223.2 751.958 225.749L750.824 226.731ZM585.044 118.434C581.868 117.381 578.678 116.361 575.475 115.372L575.917 113.938C579.13 114.93 582.33 115.953 585.516 117.01L585.044 118.434ZM760.59 238.482C759.519 237.14 758.443 235.81 757.362 234.492L758.522 233.541C759.607 234.864 760.687 236.199 761.762 237.546L760.59 238.482ZM565.85 112.505C562.642 111.584 559.422 110.692 556.19 109.828L556.577 108.379C559.818 109.245 563.047 110.139 566.264 111.063L565.85 112.505ZM546.458 107.321C543.208 106.513 539.946 105.733 536.673 104.978L537.01 103.516C540.291 104.273 543.561 105.056 546.82 105.865L546.458 107.321ZM526.895 102.804C523.626 102.103 520.346 101.426 517.057 100.772L517.349 99.3009C520.646 99.9567 523.933 100.635 527.21 101.337L526.895 102.804ZM507.159 98.8748C503.881 98.2696 500.593 97.6848 497.297 97.1197L497.551 95.6413C500.853 96.2076 504.147 96.7932 507.432 97.3998L507.159 98.8748ZM487.391 95.4821C484.081 94.9547 480.762 94.4456 477.436 93.953L477.655 92.4693C480.987 92.9624 484.311 93.4726 487.627 94.0008L487.391 95.4821ZM467.497 92.5334C464.188 92.0774 460.872 91.6368 457.55 91.21L457.741 89.7222C461.068 90.1496 464.388 90.5909 467.702 91.0474L467.497 92.5334ZM-526.964 -556.51C-527.904 -557.892 -528.841 -559.286 -529.777 -560.693L-528.527 -561.523C-527.595 -560.121 -526.661 -558.731 -525.724 -557.354L-526.964 -556.51ZM447.562 89.9701C444.237 89.5712 440.905 89.1848 437.568 88.8098L437.735 87.3191C441.076 87.6946 444.412 88.0813 447.741 88.4809L447.562 89.9701ZM-515.452 -540.335C-517.409 -542.963 -519.357 -545.638 -521.296 -548.363L-520.074 -549.232C-518.141 -546.517 -516.2 -543.85 -514.249 -541.231L-515.452 -540.335ZM427.595 87.7237C424.266 87.372 420.931 87.0303 417.591 86.6975L417.74 85.2049C421.082 85.538 424.42 85.8799 427.753 86.2318L427.595 87.7237ZM-503.24 -524.675C-505.317 -527.218 -507.385 -529.809 -509.444 -532.449L-508.261 -533.372C-506.209 -530.74 -504.148 -528.158 -502.079 -525.624L-503.24 -524.675ZM-490.331 -509.586C-492.528 -512.037 -494.717 -514.537 -496.898 -517.087L-495.758 -518.062C-493.585 -515.521 -491.403 -513.03 -489.214 -510.587L-490.331 -509.586ZM402.358 85.2387C400.764 85.0917 399.168 84.9463 397.571 84.8024L397.706 83.3084C401.042 83.6093 404.373 83.9163 407.701 84.2309L407.56 85.7242C405.827 85.5603 404.093 85.3986 402.358 85.2387ZM-476.742 -495.117C-479.057 -497.47 -481.365 -499.87 -483.665 -502.32L-482.572 -503.347C-480.28 -500.905 -477.98 -498.514 -475.673 -496.169L-476.742 -495.117ZM-468.276 -486.75C-468.756 -487.211 -469.236 -487.675 -469.716 -488.14L-468.671 -489.217C-467.818 -488.388 -466.963 -487.566 -466.108 -486.75H-468.276ZM-315.988 -380.54L-315.693 -380.356L-314.899 -381.629C-315.262 -381.855 -315.625 -382.081 -315.988 -382.307V-380.54ZM387.559 83.9181C384.219 83.6288 380.874 83.3445 377.527 83.0641L377.653 81.5694C381.001 81.8499 384.346 82.1342 387.689 82.4236L387.559 83.9181ZM-299.016 -369.658C-301.761 -371.476 -304.527 -373.275 -307.315 -375.061L-306.505 -376.324C-303.712 -374.535 -300.939 -372.731 -298.188 -370.909L-299.016 -369.658ZM-282.734 -358.422C-285.403 -360.348 -288.098 -362.246 -290.817 -364.121L-289.966 -365.356C-287.238 -363.476 -284.534 -361.571 -281.856 -359.638L-282.734 -358.422ZM-266.995 -346.439C-269.562 -348.507 -272.158 -350.537 -274.782 -352.533L-273.874 -353.726C-271.239 -351.723 -268.632 -349.684 -266.054 -347.607L-266.995 -346.439ZM-251.997 -333.553C-254.43 -335.788 -256.897 -337.976 -259.394 -340.119L-258.417 -341.258C-255.907 -339.103 -253.429 -336.905 -250.982 -334.657L-251.997 -333.553ZM-237.951 -319.675C-240.214 -322.085 -242.512 -324.439 -244.843 -326.741L-243.789 -327.809C-241.445 -325.494 -239.133 -323.126 -236.857 -320.701L-237.951 -319.675ZM367.509 82.2357C364.173 81.9632 360.834 81.6931 357.493 81.4247L357.613 79.9295C360.954 80.198 364.294 80.468 367.631 80.7408L367.509 82.2357ZM-224.991 -304.726C-227.068 -307.326 -229.181 -309.862 -231.33 -312.34L-230.197 -313.323C-228.035 -310.83 -225.909 -308.278 -223.819 -305.662L-224.991 -304.726ZM-217.758 -297.75H-217.856L-217.792 -297.797L-217.758 -297.75ZM347.464 80.6221L345.101 80.4336C342.545 80.2299 339.989 80.026 337.432 79.8217L337.552 78.3264C340.897 78.5938 344.241 78.8601 347.583 79.1269L347.464 80.6221ZM327.412 79.0172C324.071 78.7473 320.73 78.4754 317.388 78.2001L317.511 76.7051C318.756 76.8078 320.002 76.9099 321.247 77.0116C323.343 77.1828 325.438 77.3528 327.533 77.5221L327.412 79.0172ZM307.361 77.3633C304.019 77.0804 300.678 76.793 297.338 76.5L297.469 75.0058C300.808 75.2986 304.147 75.5858 307.487 75.8686L307.361 77.3633ZM287.318 75.6029C283.979 75.2975 280.641 74.9853 277.304 74.6651L277.447 73.1719C280.782 73.492 284.118 73.804 287.455 74.1092L287.318 75.6029ZM267.29 73.6785C263.951 73.3405 260.614 72.9934 257.279 72.6359L257.438 71.1444C260.77 71.5016 264.105 71.8484 267.441 72.1861L267.29 73.6785ZM247.281 71.5312C243.949 71.1515 240.62 70.7604 237.294 70.3565L237.475 68.8675C240.797 69.2709 244.122 69.6617 247.45 70.0408L247.281 71.5312ZM227.299 69.1018C223.971 68.67 220.646 68.2242 217.325 67.7631L217.531 66.2774C220.848 66.7378 224.168 67.183 227.492 67.6143L227.299 69.1018ZM207.375 66.333C204.052 65.8388 200.733 65.3282 197.42 64.7997L197.656 63.3184C200.964 63.846 204.278 64.3559 207.596 64.8494L207.375 66.333ZM-150.658 -163.526C-152.284 -166.387 -153.896 -169.283 -155.497 -172.215L-154.181 -172.934C-152.584 -170.009 -150.975 -167.12 -149.354 -164.267L-150.658 -163.526ZM187.485 63.1585C184.178 62.5929 180.877 62.0083 177.581 61.4036L177.852 59.9283C181.142 60.5319 184.437 61.1154 187.738 61.68L187.485 63.1585ZM-140.413 -146.211C-142.204 -149.117 -143.983 -152.063 -145.747 -155.049L-144.456 -155.812C-142.696 -152.834 -140.923 -149.896 -139.136 -146.998L-140.413 -146.211ZM167.696 59.5243C164.399 58.8754 161.108 58.2049 157.824 57.5116L158.134 56.044C161.411 56.7357 164.695 57.4049 167.985 58.0525L167.696 59.5243ZM-129.499 -129.234C-131.344 -131.986 -133.177 -134.776 -134.996 -137.606L-133.734 -138.417C-131.92 -135.596 -130.093 -132.814 -128.253 -130.07L-129.499 -129.234ZM147.992 55.3622C144.721 54.622 141.457 53.8577 138.2 53.0683L138.554 51.6105C141.803 52.3981 145.059 53.1606 148.323 53.8992L147.992 55.3622ZM-118.014 -112.825C-119.998 -115.54 -121.969 -118.296 -123.925 -121.094L-122.695 -121.953C-120.745 -119.164 -118.781 -116.416 -116.803 -113.709L-118.014 -112.825ZM128.428 50.6161C125.178 49.7726 121.937 48.9025 118.704 48.0044L119.105 46.5591C122.33 47.4549 125.563 48.3228 128.805 49.1643L128.428 50.6161ZM-105.737 -96.7502C-107.811 -99.3468 -109.871 -101.984 -111.918 -104.663L-110.726 -105.574C-108.686 -102.903 -106.632 -100.274 -104.565 -97.6862L-105.737 -96.7502ZM109.03 45.2257C105.813 44.2705 102.605 43.2862 99.4068 42.2716L99.8604 40.8418C103.05 41.8535 106.249 42.8351 109.457 43.7878L109.03 45.2257ZM-92.886 -81.3731C-95.0964 -83.8999 -97.2925 -86.4691 -99.4741 -89.0815L-98.3229 -90.043C-96.1485 -87.4394 -93.9598 -84.8789 -91.757 -82.3607L-92.886 -81.3731ZM89.8392 39.1353C86.6596 38.0586 83.4898 36.9505 80.3301 35.8095L80.8397 34.3986C83.9896 35.5362 87.15 36.641 90.3202 37.7145L89.8392 39.1353ZM-79.2349 -66.4846C-81.5387 -68.8806 -83.8283 -71.3188 -86.1036 -73.8L-84.9981 -74.8138C-82.7308 -72.3413 -80.4492 -69.9117 -78.1536 -67.5241L-79.2349 -66.4846ZM70.8976 32.2925C67.7707 31.0893 64.6544 29.8522 61.549 28.5802L62.1176 27.1922C65.2128 28.46 68.3191 29.6931 71.4363 30.8926L70.8976 32.2925ZM-64.9606 -52.3375C-67.4157 -54.6548 -69.8562 -57.016 -72.2817 -59.4218L-71.2254 -60.4868C-68.8086 -58.0897 -66.377 -55.7372 -63.931 -53.4283L-64.9606 -52.3375ZM52.2668 24.6577C49.1865 23.3155 46.1177 21.937 43.0608 20.5213L43.6912 19.1602C46.7376 20.5711 49.796 21.9449 52.8659 23.2826L52.2668 24.6577ZM-55.9877 -44.1183C-56.497 -44.5709 -57.0057 -45.0254 -57.5139 -45.4815L-56.5118 -46.5976C-56.3372 -46.4409 -56.1624 -46.2843 -55.9877 -46.1279V-44.1183ZM15.0076 6.25003C15.3768 6.4556 15.746 6.66055 16.1155 6.8649L16.4556 6.25003H15.0076ZM34.0053 16.1991C30.9987 14.721 28.0045 13.2047 25.0226 11.6494L25.7164 10.3195C28.6876 11.8693 31.6712 13.38 34.6671 14.8531L34.0053 16.1991Z" fill="#496E0D"/>
</svg>
